<svg id="Layer_1" data-name="Layer 1" xmlns="http://www.w3.org/2000/svg" viewBox="0 0 372.15 474.42"><defs><style>.cls-1{fill:#040404;}</style></defs><title>applause</title><path class="cls-1" d="M372,253.43c1.09-12.79-5.2-22-16.49-28.55a32.09,32.09,0,0,0,8.55-8c6.75-9.85,6.68-21.57.11-32.24-5.19-8.43-17.72-14.09-27.38-12-3.77.81-3.76-.18-3.71-3,.37-21.91-23.57-35-42.26-24C256.05,166.11,221.57,187.19,187,208L169.7,218.43a227.24,227.24,0,0,1,10-27.28c3.63-8.36,7-16.77,5.32-26.07-2.2-12-12.86-21.91-25.92-23.71-9.45-1.31-23.27,3.4-29.36,15.78-2.52,5.11-5,10.24-7.49,15.36C108.05,201.69,94.37,231.13,79.52,260c-11.92,23.12-17.16,46.81-12.45,72.67,5.29,29,20,51.77,43.81,68.74,22.28,15.91,47.09,22.16,74.43,18.95a104.23,104.23,0,0,0,41.9-14q57.5-34.36,114.71-69.15c6.72-4.07,14.44-6.95,19.45-13.2,12.33-15.41,8.28-34.15-10.07-44.81C363,274.06,371,266.1,372,253.43Zm-23.79,7.48Q318,279.09,287.69,297.29c-7,4.21-13.94,8.54-20.94,12.77-6.38,3.85-8.32,10.47-4.69,16.3s10.53,7.12,16.76,3.35q27.33-16.5,54.62-33.06c7.33-4.43,14.45-1.78,17,6.26,1.38,4.3-.38,8.89-4.83,11.6Q312.9,334.4,280.1,354.14c-20.86,12.58-41.66,25.26-62.65,37.62A86.41,86.41,0,0,1,180,403.32c-27.09,2.18-50.27-6.51-69.68-24.88A86.22,86.22,0,0,1,84,328.87c-.86-5.14-.51-10.25-.94-13.63-.57-18.42,4.9-33.33,12.38-48.11,16.07-31.71,31.18-63.91,46.75-95.88,1.4-2.88,2.4-6,4.75-8.42a12,12,0,0,1,15.61-1.75c5.08,3.23,6.82,8.79,4.52,14.53-6.66,16.63-13.37,33.23-20,49.88-2.72,6.87-2,12.2,2.5,15.5,5.25,3.83,8.78,4.67,16.17.21,44.13-26.59,88.35-53,132.39-79.76,6-3.66,12.91-2.4,16.09,2.72,3.6,5.79,1.93,11.88-4.73,15.9Q274.91,201,240.17,221.72c-4.63,2.78-9.28,5.53-13.77,8.51-4.77,3.16-6.06,9.42-3.27,14.72,2.56,4.87,8.09,7.34,13.21,5.24,8.65-3.54,16.19-9.14,24.17-13.89q37.07-22.1,74-44.39c6.44-3.87,12.59-1.68,15.6,3,3.52,5.48,1.75,11.58-4.51,15.36q-47.24,28.53-94.51,57c-8.12,4.89-9.47,13.4-3.11,19.3,3.55,3.29,9.67,3.76,14.2,1q37.38-22.57,74.75-45.16c8.08-4.87,16.21-1.52,17.48,7.22C355.17,254.87,352.5,258.35,348.24,260.91Z"/><path class="cls-1" d="M262.55,148.6c-5.77,3.2-11.31,6.82-18.17,11,2.91-4.6,4.94-8.13,3.23-12.44s-4.81-7-9.52-7.4-8.15,2.24-10.69,5.9c-5.23,7.54-10.27,15.2-15.42,22.79-3.68,5.43-7.42,10.83-11.1,16.26-1.82,2.69-4.66,3.83-7.88,5.5,5.06-11.72,6.11-23.08,1.33-34.64-.79-1.91.8-3.36,1.82-4.85Q209.08,131.86,222,113c3.57-5.23,2.95-12.42-1.34-15.54-5.39-3.92-11.76-3-15.91,2.74-7.94,11.08-15.76,22.26-23.24,33.65-1.71,2.61-2.91,2.49-4.93,1.2-5.79-3.71-12.39-4.81-19.64-6.08,6.7-9.78,13.09-19.09,19.45-28.42,4.47-6.55,3.64-12.88-2.14-16.75-5.3-3.56-11.18-1.93-15.56,4.43q-44.22,64.27-88.42,128.58c-3.19,4.65-8.23,6.89-13.64,5.29-4.68-1.38-7.59-4.55-8.57-9.76-1.75-9.23-.91-18.56-1.54-27.83-.67-9.74-1.41-19.56-1.37-29.38,0-6.26-6.12-12-12.21-11.81S21.48,149.05,21.14,155c-1,17.14-.58,34.31-1.1,51.44-.66,21.79-.88,43.6-2.09,65.35-1.26,22.83,4.64,43,18.07,61.32a84,84,0,0,0,20.81,19.74,14.34,14.34,0,0,1,5.64,6.87,138.31,138.31,0,0,0,11.26,21.11c-35.77-13.67-59-37.5-69.49-73.14A98,98,0,0,1,1,265.54a29.09,29.09,0,0,0,.17-3.5c.35-18.8.33-37.63,1.16-56.42.74-16.65.38-33.31,1-49.94.65-16.12,10.15-26.51,25.38-29.31,14.5-2.66,28.37,6.7,32.77,21.43a40.75,40.75,0,0,1,1.39,9.74c.29,6-.26,12.05.48,18s.62,11.57.89,17.53c2.22,0,2.67-2,3.45-3.12q38.42-56,76.67-112.12c13.53-19.83,41.4-16.41,49.94,3.93a19.23,19.23,0,0,0,1.2,2.12c13.88-9.33,27.33-7.5,36.94,1,10.49,9.25,12.1,21,5,37.1,13.43,1.42,22.86,7.84,27.06,21.17C265.39,145.82,265.17,147.15,262.55,148.6Z"/><path class="cls-1" d="M145.39,20.75c-2.06,3.95-5.42,4.7-10.42,1.78a60.53,60.53,0,0,0-37.82-8.18A57.13,57.13,0,0,0,65.73,28.17,58.45,58.45,0,0,0,45.54,63.26c-.77,4.37-.2,8.95-.47,13.42-.22,3.59-1.18,6.57-5.39,7.84-3.41,1-5.22-.69-7.32-2.53-1.31-1.15-1.1-2.62-1.21-4.1C28.4,40.61,53.83,9.55,88.72,1.57c5-1.14,10.08-2,14.23-1.3,14.54-.5,26.89,3.39,38.5,10C146.16,12.91,147.51,16.67,145.39,20.75Z"/><path class="cls-1" d="M304.09,473c-4.79,1.1-9.77,1.86-13.91,1.21-14.37.44-26.73-3.39-38.36-10-4.53-2.58-6.12-6.77-4.11-10.62,1.9-3.63,5.85-4.31,10.63-1.71a65.8,65.8,0,0,0,31.31,8.47c25.28.32,49.68-18.31,56.54-42.56,1.88-6.63,2-13.29,2-20.06,0-3.42,1-6.29,4.87-7.68,3.49-1.26,5.59.29,7.8,2.37a4.81,4.81,0,0,1,1.28,3.58C364.73,433.52,340.13,464.73,304.09,473Z"/><path class="cls-1" d="M135.41,42.47c-2.17,4.1-5.53,5-10.39,2.12A37.22,37.22,0,0,0,69.7,68.31a43.28,43.28,0,0,0-.51,8.39c-.16,6-2.51,9.45-6.91,9.54-5.15.1-7.11-2.48-7.11-9.36v-2C55.12,51,74,29.65,98.08,26.06c12.21-1.83,23,.87,33.54,6.3C136.06,34.65,137.42,38.68,135.41,42.47Z"/><path class="cls-1" d="M338.13,399.19c.13,24.21-19.11,45.72-43.09,49.19-12.06,1.75-22.72-.86-33.11-6.21-4.81-2.47-6.09-6.19-3.91-10.37s5.22-4.75,10.33-1.91c17.25,9.57,34.15,5.29,45.57-6.12a34.27,34.27,0,0,0,10.27-26.69c-.25-5.53,2.61-8.88,7-8.87s6.66,2.2,7,6.49C338.22,396.19,338.13,397.7,338.13,399.19Z"/></svg>