<?xml version="1.0" encoding="iso-8859-1"?>
<!-- Generator: Adobe Illustrator 18.0.0, SVG Export Plug-In . SVG Version: 6.00 Build 0)  -->
<!DOCTYPE svg PUBLIC "-//W3C//DTD SVG 1.1//EN" "http://www.w3.org/Graphics/SVG/1.1/DTD/svg11.dtd">
<svg version="1.1" id="Capa_1" xmlns="http://www.w3.org/2000/svg" xmlns:xlink="http://www.w3.org/1999/xlink" x="0px" y="0px"
	 viewBox="0 0 486.473 486.473" style="enable-background:new 0 0 486.473 486.473;" xml:space="preserve">
<g>
	<path d="M473.129,38.266c-12.851-11.879-31.213-14.4-46.775-6.422c-60.11,30.813-113.032,81.982-127.31,96.379
		c-36.623-8.783-74.992-8.783-111.615,0c-14.277-14.397-67.2-65.565-127.31-96.379c-15.563-7.978-33.925-5.457-46.775,6.422
		C0.461,50.175-3.502,68.327,3.248,84.513c25.218,60.462,61.584,136.602,66.181,146.193l9.637,46.577
		c6.04,29.194,22.501,55.123,46.352,73.011c9.264,6.947,17.255,15.333,23.752,24.923l36.086,53.27
		c13.046,19.258,34.721,30.755,57.981,30.755s44.936-11.498,57.98-30.755l36.086-53.27c6.496-9.589,14.487-17.974,23.752-24.923
		c23.85-17.887,40.312-43.815,46.353-73.011l9.637-46.577c4.597-9.592,40.963-85.731,66.181-146.193
		C489.975,68.327,486.012,50.175,473.129,38.266z M19.861,77.584c-4.623-11.085-0.087-20.75,5.7-26.1
		c3.77-3.484,9.329-6.293,15.702-6.293c3.369,0,6.966,0.786,10.645,2.671c5.899,3.024,11.744,6.271,17.498,9.677
		c33.712,19.958,60.542,49.962,75.303,86.252c1.165,2.865,2.276,5.81,3.32,8.836c-5.594,5.249-17.015,15.696-39.875,36.2
		c-10.167,9.119-18.018,20.248-23.286,32.446C77.936,206.77,43.813,135.012,19.861,77.584z M350.255,335.893
		c-10.864,8.149-20.236,17.982-27.854,29.227l-36.086,53.27c-9.692,14.308-25.796,22.85-43.078,22.85s-33.387-8.542-43.079-22.85
		l-36.086-53.27c-7.619-11.246-16.99-21.08-27.854-29.228c-20.338-15.252-34.374-37.362-39.524-62.256l0,0h0
		c-5.42-26.195,3.577-53.558,23.48-71.41c24.953-22.38,39.937-36.059,44.534-40.657c2.361-2.361,3.221-5.836,2.232-9.027
		c-3.491-11.269-7.822-21.575-12.564-30.891c14.594,13.252,23.479,22.527,23.706,22.765c2.263,2.378,5.644,3.337,8.814,2.5
		c36.858-9.71,75.822-9.711,112.681,0c3.169,0.834,6.552-0.123,8.814-2.5c0.227-0.239,9.111-9.513,23.706-22.765
		c-4.742,9.316-9.074,19.622-12.564,30.891c-0.988,3.19-0.129,6.666,2.233,9.028c4.594,4.593,19.576,18.271,44.532,40.656
		c19.903,17.851,28.9,45.211,23.484,71.405l-0.001,0.005C384.629,298.531,370.592,320.641,350.255,335.893z M466.611,77.584
		c-23.951,57.426-58.082,129.201-65.01,143.693c-5.268-12.199-13.117-23.331-23.284-32.45
		c-22.859-20.504-34.28-30.951-39.875-36.199c2.434-7.043,5.232-13.658,8.248-19.829c15.38-31.467,40.116-57.328,70.248-75.183
		c5.795-3.434,11.683-6.707,17.626-9.753c10.637-5.451,20.583-1.705,26.347,3.623C466.698,56.833,471.235,66.499,466.611,77.584z"/>
	<path d="M353.866,232.156l-7.754-3.981c-14.443-7.417-31.177-7.761-45.913-0.942c-14.735,6.818-25.307,19.796-29.003,35.606
		c-0.02,0.085-0.038,0.17-0.056,0.255l-13.613,66.929h-28.584l-13.613-66.929c-0.018-0.085-0.036-0.17-0.056-0.254
		c-3.695-15.81-14.266-28.789-29.001-35.606c-14.736-6.819-31.472-6.476-45.914,0.941l-7.754,3.981
		c-4.421,2.271-6.165,7.696-3.895,12.117c1.522,2.964,4.463,4.718,7.569,4.872c3.368,23.635,23.727,41.87,48.274,41.87
		c6.054,0,11.932-1.087,17.437-3.196l9.289,45.671c-4.168,3.14-6.881,8.114-6.881,13.723c0,3.988,1.32,8.809,17.101,19.886
		c5.514,3.87,9.633,6.344,12.736,7.93v15.507l-26.99,6.132c-4.847,1.101-7.884,5.923-6.782,10.771
		c0.949,4.176,4.659,7.008,8.769,7.008c0.66,0,1.331-0.073,2.002-0.226l32.002-7.271l32.001,7.271
		c4.852,1.099,9.668-1.936,10.771-6.782c1.102-4.847-1.936-9.669-6.782-10.771l-26.989-6.132v-15.508
		c3.103-1.587,7.222-4.06,12.735-7.93c15.78-11.077,17.101-15.897,17.101-19.886c0-5.609-2.712-10.583-6.881-13.723l9.289-45.672
		c5.505,2.109,11.383,3.197,17.437,3.197c24.547,0,44.906-18.234,48.274-41.87c3.106-0.154,6.047-1.906,7.569-4.872
		C360.031,239.852,358.288,234.427,353.866,232.156z M184.555,273.015c-16.968,0-30.772-13.809-30.772-30.783
		c0-0.068,0.008-0.134,0.008-0.202c8.153-2.635,16.982-2.137,24.925,1.538c9.634,4.458,16.555,12.926,19.005,23.248l0.598,2.942
		C194.079,271.888,189.412,273.015,184.555,273.015z M243.236,359.435c-4.049-1.939-12.076-7.257-17.252-11.413h34.503
		C255.312,352.178,247.285,357.496,243.236,359.435z M301.918,273.015c-4.857,0-9.525-1.127-13.764-3.257l0.598-2.94
		c2.451-10.322,9.372-18.792,19.006-23.249c7.944-3.676,16.771-4.173,24.925-1.538c0,0.068,0.008,0.133,0.008,0.201
		C332.691,259.206,318.886,273.015,301.918,273.015z"/>
</g>
<g>
</g>
<g>
</g>
<g>
</g>
<g>
</g>
<g>
</g>
<g>
</g>
<g>
</g>
<g>
</g>
<g>
</g>
<g>
</g>
<g>
</g>
<g>
</g>
<g>
</g>
<g>
</g>
<g>
</g>
</svg>
